<?xml version="1.0" encoding="UTF-8"?>
<svg id="Layer_1" xmlns="http://www.w3.org/2000/svg" version="1.1" viewBox="0 0 63.41 57.58">
  <!-- Generator: Adobe Illustrator 29.4.0, SVG Export Plug-In . SVG Version: 2.1.0 Build 152)  -->
  <defs>
    <style>
      .st0 {
        stroke-miterlimit: 10;
        stroke-width: .1px;
      }

      .st0, .st1 {
        stroke: #1a2afc;
      }

      .st0, .st2, .st3 {
        fill: #1a2afc;
      }

      .st1 {
        fill: none;
        stroke-linecap: round;
        stroke-linejoin: round;
        stroke-width: .5px;
      }

      .st2 {
        isolation: isolate;
        opacity: .3;
      }

      .st3 {
        opacity: .6;
      }
    </style>
  </defs>
  <g>
    <g>
      <path class="st3" d="M40.92,14.86c-.43,0-.68.08-1.07.22-.56-1.28-1.76-2.18-3.24-2.18-.78,0-1.46.25-2.05.67-.66-.91-1.62-1.51-2.83-1.51-.8,0-2.04,1.01-2.04,1.46l-.5-6.44c0-2-1.38-3.29-3.38-3.29s-3.12,1.61-3.12,3.61l.67,14.83-1.34-1.62c-1.25-1.55-3.66-2.3-5.21-1.04-1.55,1.25-.85,4.05.4,5.6l7.04,8.03c.45.56,2.02,2.37,5.83,2.37h5.97c8.64,0,8.14-8.34,8.14-8.34v-8.75c0-2-1.3-3.63-3.29-3.63Z"/>
      <path class="st2" d="M61.71,12.55l-8.5-8.04v4.04h-8v9h8v3.04l8.5-8.04Z"/>
      <path class="st2" d="M1.71,12.55l8.5,8.04v-3.04h9v-9h-9v-4.04L1.71,12.55Z"/>
    </g>
    <g>
      <path class="st0" d="M9.52,40.31c.61,0,1.1.23,1.49.7v-.19s-.02-.05-.02-.06c-.01-.12-.02-.18-.02-.17,0-.19.08-.29.25-.29.18,0,.27.12.27.35,0,.04,0,.17-.02.39-.03.27-.05.46-.05.57,0,.15,0,.3.03.45l.04.31v.08c0,.25-.1.37-.3.37-.21,0-.32-.12-.31-.35v-.29c.01-.39-.11-.71-.37-.95-.26-.24-.59-.37-1.01-.37-.54,0-.96.21-1.27.62-.31.42-.46.99-.46,1.73s.16,1.34.47,1.75c.32.42.75.63,1.32.63.31,0,.58-.07.83-.22.24-.15.42-.34.51-.58.07-.16.1-.37.1-.64,0-.25.1-.38.31-.38.22,0,.34.13.34.38,0,.59-.2,1.07-.61,1.44s-.93.56-1.57.56c-.74,0-1.33-.26-1.77-.78-.44-.52-.66-1.21-.66-2.08s.23-1.61.68-2.16,1.05-.82,1.79-.82Z"/>
      <path class="st0" d="M13.59,42.54v2.55c0,.28.08.42.22.42.03,0,.1-.01.21-.04.07-.01.11-.02.13-.02.18,0,.27.09.27.28s-.11.27-.34.27c-.09,0-.23-.01-.42-.03-.19-.02-.34-.03-.44-.03-.09,0-.22.01-.39.03-.17.02-.3.03-.38.03h-.04c-.23,0-.34-.1-.34-.3,0-.17.09-.25.28-.25h.06s.06.01.07.01c.14.03.22.05.24.05.1,0,.16-.04.19-.13s.04-.31.05-.66v-.58s0-1.28,0-1.28v-1.47c0-.17-.01-.27-.02-.33-.04-.13-.12-.19-.23-.19-.02,0-.09.01-.21.03-.06.01-.11.02-.15.02-.19,0-.28-.09-.28-.26s.11-.27.33-.27c.06,0,.11,0,.16,0l.2.02c.09.01.16.02.22.02.05,0,.14,0,.25-.02.11-.02.19-.03.25-.03.13,0,.19.08.19.24,0,.05,0,.1,0,.12-.04.42-.06,1.02-.06,1.79Z"/>
      <path class="st0" d="M16.17,43.59v1.07c0,.27,0,.44,0,.49.03.25.1.37.22.37.03,0,.1-.01.21-.04.03-.01.07-.02.12-.02.21,0,.31.09.31.27,0,.08-.03.14-.1.2-.07.05-.16.08-.26.08-.09,0-.22-.01-.4-.04s-.31-.04-.4-.04c-.14,0-.3.01-.48.03-.21.03-.36.04-.43.04-.22,0-.33-.09-.33-.28s.09-.27.28-.27c.04,0,.11,0,.19.02.09.02.15.02.2.02.13,0,.21-.17.24-.53v-2.1c-.03-.35-.11-.52-.25-.52-.04,0-.11,0-.19.03-.08.02-.14.03-.18.03-.2,0-.3-.09-.3-.26,0-.19.12-.28.36-.28.1,0,.18,0,.22,0,.18.02.29.03.34.03.04,0,.11,0,.2-.02s.16-.02.2-.02c.16,0,.24.11.24.32,0,.02,0,.05,0,.1s0,.08,0,.1c0,.04,0,.21-.01.51,0,.22,0,.46,0,.69ZM15.74,41.44c-.13,0-.23-.04-.32-.14-.09-.09-.14-.2-.14-.32s.04-.23.14-.32c.09-.09.2-.13.32-.13s.23.04.32.13c.09.09.14.19.14.32s-.04.23-.14.32c-.09.09-.2.14-.32.14Z"/>
      <path class="st0" d="M19.78,43.26c0-.22.14-.34.41-.38-.03-.19-.12-.34-.28-.45s-.36-.16-.6-.16c-.38,0-.68.15-.91.45-.23.3-.35.7-.35,1.2s.11.92.32,1.21c.22.29.52.44.9.44.24,0,.45-.07.63-.21.18-.14.3-.33.37-.57.05-.19.09-.3.1-.33.06-.11.15-.17.26-.17.09,0,.17.03.23.09.06.06.09.14.09.23,0,.14-.04.3-.13.49-.09.19-.19.35-.31.48-.32.35-.74.52-1.26.52-.56,0-1.01-.2-1.35-.59-.34-.39-.51-.91-.51-1.55,0-.68.18-1.22.53-1.63s.82-.61,1.41-.61c.44,0,.8.12,1.09.36s.44.54.44.91c0,.2-.06.37-.17.5s-.26.2-.43.2c-.14,0-.25-.04-.34-.12s-.14-.18-.14-.3Z"/>
      <path class="st0" d="M22.76,43.9l1.41-1.31s.07-.09.07-.15-.04-.08-.11-.08c-.06,0-.13.01-.24.03-.1.02-.18.03-.24.03-.19,0-.29-.09-.29-.26,0-.19.12-.29.36-.29.06,0,.14,0,.23.02.38.04.67.07.86.07.11,0,.2,0,.28-.02l.34-.05c.08-.01.14-.02.19-.02.27,0,.4.09.4.28,0,.18-.09.27-.28.27-.04,0-.11,0-.19-.02-.08-.01-.14-.02-.19-.02-.14,0-.28.07-.43.21l-.86.79c-.06.05-.09.1-.09.13,0,.03.02.07.07.12l1.05,1.36c.27.35.46.52.58.52.03,0,.07,0,.14-.02.06-.01.11-.02.15-.02.2,0,.3.09.3.26,0,.19-.13.28-.38.28-.1,0-.25-.01-.44-.03-.19-.02-.34-.03-.44-.03-.09,0-.22.01-.38.03-.17.02-.29.03-.37.03-.21,0-.31-.09-.31-.28,0-.18.1-.26.3-.26.06,0,.1,0,.13,0,.1.03.16.04.19.04.05,0,.07-.02.07-.06v-.02s0-.01,0-.02l-.08-.12-.11-.16-.82-1.09c-.05-.07-.1-.11-.13-.11-.02,0-.06.03-.12.08l-.61.54v.19c0,.26,0,.41,0,.44.03.19.1.29.23.29.05,0,.1,0,.14-.01.04,0,.09-.01.16-.01.19,0,.28.09.28.27s-.1.27-.31.27c-.09,0-.23-.01-.42-.04s-.33-.04-.43-.04c-.13,0-.27.01-.44.03-.21.03-.35.04-.42.04-.21,0-.32-.09-.32-.27s.1-.27.31-.27c.04,0,.1,0,.16.02.09.02.15.02.18.02.13,0,.21-.1.22-.31l.02-.32v-3.32c-.01-.3-.03-.48-.06-.56-.03-.08-.09-.12-.17-.12-.03,0-.08,0-.16.02-.08.03-.15.04-.23.04-.18,0-.27-.08-.27-.25,0-.19.11-.28.32-.28.11,0,.19,0,.23,0,.14.02.23.02.27.02s.11,0,.19-.02.15-.02.19-.02h.06c.18,0,.26.11.26.34v3.17Z"/>
      <path class="st0" d="M32.07,41.3c0,.61-.39,1.12-1.18,1.52l.09.15c.15.25.41.64.79,1.18l.09.12.05-.14.32-.85c.38-1.01.93-1.51,1.64-1.51.33,0,.6.09.8.28.2.19.3.44.3.74s-.1.54-.29.74c-.19.2-.43.3-.72.3-.21,0-.38-.05-.51-.16-.13-.1-.2-.24-.2-.41,0-.26.12-.39.35-.39.2,0,.3.09.3.27,0,.02-.01.07-.04.13.08.01.12.02.13.02.1,0,.19-.04.27-.13.08-.09.12-.19.12-.32,0-.16-.05-.29-.15-.38-.1-.1-.24-.14-.42-.14-.28,0-.52.16-.7.47-.15.25-.33.67-.54,1.26-.12.32-.22.57-.32.74.24.26.43.44.59.53.16.09.36.13.6.13.05,0,.12,0,.22-.02.1-.01.17-.02.22-.02.22,0,.34.1.34.3,0,.19-.12.29-.35.29h-.8c-.38,0-.78-.22-1.21-.67-.15.17-.27.29-.38.36-.34.24-.73.35-1.18.35-.5,0-.91-.15-1.23-.45-.32-.3-.48-.69-.48-1.17,0-.64.27-1.13.81-1.47.18-.12.35-.21.5-.29l.1-.05c-.29-.53-.44-.95-.44-1.27s.11-.59.34-.8c.23-.2.53-.3.9-.3s.7.1.92.29c.22.19.34.45.34.78ZM30.61,43.68c-.13-.2-.25-.4-.35-.58-.21.1-.38.21-.51.32-.3.26-.45.59-.45.98,0,.31.1.56.29.75.19.19.45.29.76.29.47,0,.84-.19,1.13-.57-.37-.47-.66-.87-.86-1.19ZM30.24,41.3c0,.21.12.55.36,1.03.53-.25.8-.58.8-.97,0-.17-.05-.32-.16-.42-.11-.11-.25-.16-.43-.16-.17,0-.31.05-.41.14s-.16.22-.16.38Z"/>
      <path class="st0" d="M39.71,41.08l1.27,4.16,1.39-4.43c.07-.23.2-.34.37-.34h.04c.05,0,.13,0,.21.02.11.03.18.04.21.04.09.01.21.02.36.02.16,0,.29,0,.39-.02l.29-.05s.05,0,.1,0c.25,0,.38.1.38.29,0,.18-.09.26-.26.26-.04,0-.11,0-.19-.02s-.15-.02-.19-.02c-.28,0-.42.21-.42.62v3.3c0,.41.14.62.41.62.05,0,.11,0,.18-.02.12-.01.19-.02.21-.02.17,0,.26.09.26.26,0,.2-.12.3-.35.3.01,0-.03,0-.12-.02-.38-.04-.7-.07-.96-.07s-.5.02-.74.06c-.1.02-.19.02-.26.02-.21,0-.32-.09-.32-.28s.11-.28.33-.28c.06,0,.1,0,.12.01.12.01.19.02.22.02.2,0,.32-.21.37-.62.01-.09.02-.37.02-.84,0-.18,0-.44.02-.79v-2.19s-.01-.05-.04-.05c-.02,0-.03.02-.05.05l-1.51,4.69c-.07.21-.22.31-.46.31-.14,0-.25-.02-.32-.06s-.12-.12-.16-.25l-1.49-4.69s-.04-.05-.06-.05-.03.02-.03.05l.05,3.8c0,.4.12.6.33.6h.35c.21,0,.32.09.32.28s-.11.28-.33.28c-.04,0-.1,0-.17-.02-.12-.02-.25-.04-.39-.06-.11-.02-.25-.03-.42-.03-.3,0-.5,0-.58.03l-.35.07s-.03,0-.05,0h-.05c-.25,0-.38-.1-.38-.29,0-.08.02-.14.07-.19.05-.05.11-.08.18-.08.06,0,.13,0,.21.02s.14.02.18.02c.28,0,.42-.21.42-.62v-3.3c0-.41-.14-.62-.42-.62-.04,0-.11,0-.2.02s-.15.02-.2.02c-.17,0-.25-.09-.25-.26,0-.19.12-.29.37-.29.02,0,.06,0,.11,0l.29.03c.14.02.28.02.4.02.1,0,.25-.01.42-.03.18-.02.31-.03.39-.03.21,0,.36.13.43.4l.06.21Z"/>
      <path class="st0" d="M47.08,46.11c-.58,0-1.04-.2-1.38-.6-.34-.4-.52-.93-.52-1.6s.17-1.2.52-1.6c.35-.4.82-.6,1.4-.6s1.07.19,1.41.58c.34.39.52.92.52,1.59s-.18,1.21-.53,1.61c-.36.41-.83.61-1.42.61ZM47.12,42.27c-.38,0-.69.13-.9.4-.22.27-.34.65-.36,1.14v.11c0,.51.11.92.33,1.21.22.29.52.44.91.44s.71-.15.94-.44c.23-.29.34-.7.34-1.22,0-1.1-.42-1.64-1.25-1.64Z"/>
      <path class="st0" d="M50.9,42.83l.96,2.58.93-2.56c.05-.15.08-.25.08-.3,0-.12-.06-.18-.17-.18-.04,0-.11,0-.19.02s-.15.02-.19.02c-.18,0-.27-.09-.27-.27,0-.19.13-.28.39-.28h.07s.05,0,.07,0l.34.04c.08.02.16.03.24.03.11,0,.29-.02.54-.05.15-.02.26-.03.33-.03.24,0,.35.09.35.28s-.1.28-.29.28c-.06,0-.1,0-.13-.02-.08-.02-.14-.03-.17-.03-.1,0-.2.13-.3.4l-1.16,2.97c-.1.25-.27.38-.5.38s-.39-.13-.48-.38l-1.18-3.06c-.08-.2-.17-.3-.27-.3-.04,0-.1,0-.17.02s-.13.02-.17.02c-.18,0-.27-.08-.27-.25,0-.2.13-.3.38-.3.04,0,.08,0,.1,0l.34.04c.12.01.23.02.35.02.09,0,.23-.01.41-.03l.27-.03s.07-.01.12-.01c.24,0,.36.09.36.28,0,.18-.1.27-.31.27-.07,0-.11,0-.14,0-.1-.03-.17-.04-.2-.04-.09,0-.13.04-.13.12,0,.04.01.09.03.17l.06.18Z"/>
      <path class="st0" d="M58.24,43.56c0,.21-.01.34-.04.38-.03.05-.11.07-.24.07h-2.61c-.07,0-.12,0-.14.03-.02.02-.03.05-.03.09,0,.41.12.75.37,1.03s.55.41.92.41c.24,0,.46-.07.66-.2.2-.13.33-.3.39-.5l.07-.24c.04-.13.13-.2.27-.2.2,0,.3.1.3.31,0,.36-.18.67-.54.95-.36.28-.77.42-1.23.42-.58,0-1.03-.19-1.37-.58s-.51-.91-.51-1.56.18-1.21.54-1.63c.36-.42.83-.62,1.41-.62.51,0,.94.17,1.27.52.33.35.5.78.5,1.32ZM55.25,43.34c0,.08.06.12.18.12h1.96c.11,0,.17-.04.17-.12,0-.29-.11-.54-.33-.76-.22-.21-.48-.32-.77-.32s-.59.11-.84.33c-.25.22-.38.47-.38.74Z"/>
      <path class="st0" d="M17.24,54.71v-.53c0-.22.1-.34.3-.34s.29.13.29.38c0,.6-.08,1.01-.23,1.25-.21.32-.55.48-1.02.48-.44,0-.75-.14-.93-.42-.14-.2-.2-.55-.2-1.04v-1.97c0-.12-.05-.17-.16-.17h-.27c-.09,0-.16-.03-.22-.09-.06-.06-.09-.13-.09-.21,0-.08.03-.14.09-.21.06-.06.12-.09.19-.09h.32c.09,0,.14-.05.14-.16v-.85c0-.21.11-.31.32-.31.2,0,.3.1.3.31v.88c0,.08.05.12.15.12h.9c.21,0,.31.1.31.29,0,.2-.11.3-.34.3h-.9c-.08,0-.11.06-.11.17v2.02c0,.58.19.86.58.86s.59-.23.61-.7Z"/>
      <path class="st0" d="M20.14,55.98c-.58,0-1.04-.2-1.38-.6-.35-.4-.52-.93-.52-1.6s.17-1.2.52-1.6c.35-.4.81-.6,1.4-.6s1.07.19,1.41.58c.35.39.52.92.52,1.59s-.18,1.21-.53,1.61c-.36.41-.83.61-1.42.61ZM20.18,52.13c-.38,0-.69.13-.9.4s-.34.65-.36,1.14v.11c0,.51.11.92.32,1.21.22.29.52.44.91.44s.71-.15.94-.44c.23-.29.34-.7.34-1.22,0-1.1-.42-1.64-1.25-1.64Z"/>
      <path class="st0" d="M28.88,52.81c-.16.08-.36.14-.61.2.32.06.54.18.66.36.12.18.18.48.18.89v.48c0,.39.12.59.37.59s.38-.23.38-.7v-.56c0-.16.01-.27.03-.33.04-.09.13-.14.25-.14.2,0,.3.12.3.35,0,0,0,.07,0,.18v.6s0,.08,0,.15c0,.32-.09.57-.27.74-.18.18-.43.27-.74.27-.65,0-.97-.33-.97-.98v-.71c0-.37-.07-.61-.21-.73-.14-.12-.43-.18-.86-.18h-.76c-.17,0-.26.11-.26.32v.63c0,.41,0,.64.02.69.05.27.19.41.41.41.08,0,.13,0,.17,0,.09,0,.16-.01.21-.01.18,0,.26.09.26.27,0,.19-.12.29-.35.29l-.12-.02-.44-.06c-.17-.02-.32-.03-.45-.03-.16,0-.36.01-.58.04l-.4.05c-.09.01-.13.02-.12.02-.24,0-.35-.1-.35-.3,0-.17.08-.26.25-.26.03,0,.1,0,.22.02.06.02.12.02.17.02.28,0,.42-.21.42-.62v-3.3c0-.41-.14-.62-.42-.62-.04,0-.11,0-.2.02-.09.01-.15.02-.2.02-.07,0-.13-.03-.18-.08-.05-.05-.07-.11-.07-.19,0-.19.12-.29.36-.29.02,0,.06,0,.11,0l.42.04c.11.01.25.02.41.02s.36,0,.57-.02l.62-.03c.21-.01.4-.02.58-.02,1.21,0,1.81.46,1.81,1.38,0,.54-.21.91-.62,1.11ZM26.61,52.74h.77c.46,0,.81-.07,1.04-.2.28-.16.42-.42.42-.8,0-.62-.43-.94-1.29-.94-.46,0-.77.03-.93.1-.16.07-.25.2-.25.41v1.21c0,.09.02.15.05.18.03.02.1.04.19.04Z"/>
      <path class="st0" d="M32.8,55.98c-.58,0-1.04-.2-1.38-.6-.35-.4-.52-.93-.52-1.6s.17-1.2.52-1.6c.35-.4.81-.6,1.4-.6s1.07.19,1.41.58c.35.39.52.92.52,1.59s-.18,1.21-.53,1.61c-.36.41-.83.61-1.42.61ZM32.84,52.13c-.38,0-.69.13-.9.4s-.34.65-.36,1.14v.11c0,.51.11.92.32,1.21.22.29.52.44.91.44s.71-.15.94-.44c.23-.29.34-.7.34-1.22,0-1.1-.42-1.64-1.25-1.64Z"/>
      <path class="st0" d="M37.68,54.71v-.53c0-.22.1-.34.3-.34s.29.13.29.38c0,.6-.08,1.01-.23,1.25-.21.32-.55.48-1.02.48-.44,0-.75-.14-.93-.42-.14-.2-.2-.55-.2-1.04v-1.97c0-.12-.05-.17-.16-.17h-.27c-.09,0-.16-.03-.22-.09-.06-.06-.09-.13-.09-.21,0-.08.03-.14.09-.21s.12-.09.19-.09h.32c.09,0,.14-.05.14-.16v-.85c0-.21.11-.31.32-.31.2,0,.3.1.3.31v.88c0,.08.05.12.15.12h.9c.21,0,.31.1.31.29,0,.2-.11.3-.34.3h-.9c-.08,0-.12.06-.12.17v2.02c0,.58.19.86.58.86s.59-.23.61-.7Z"/>
      <path class="st0" d="M42.22,55.95c-.45,0-.73-.19-.83-.58-.28.41-.72.62-1.32.62-.44,0-.8-.11-1.06-.33-.27-.22-.4-.51-.4-.88,0-.46.19-.79.58-1,.15-.08.28-.14.38-.16.11-.03.32-.06.65-.09.46-.05.76-.12.9-.21.14-.09.21-.25.21-.48s-.08-.4-.23-.53-.37-.19-.65-.19c-.25,0-.48.07-.69.21-.08.06-.12.11-.12.17,0,.02.03.05.07.08.08.06.12.15.12.28,0,.11-.04.2-.12.27-.08.07-.18.11-.3.11-.14,0-.26-.05-.36-.15-.1-.1-.14-.22-.14-.36,0-.31.15-.57.46-.79.3-.22.67-.33,1.11-.33,1,0,1.5.48,1.5,1.44v1.66c0,.26,0,.42.02.47.03.19.13.29.28.29.19,0,.29-.17.29-.52v-.4c0-.17.08-.26.25-.26.18,0,.27.13.27.39v.51c-.01.53-.29.79-.84.79ZM41.31,54.31v-.58c-.12.11-.25.19-.38.23-.13.04-.37.08-.72.12-.62.06-.93.29-.93.69,0,.21.08.37.23.49.15.12.35.18.61.18.37,0,.66-.1.87-.3.21-.2.32-.47.33-.83Z"/>
      <path class="st0" d="M45.61,54.71v-.53c0-.22.1-.34.3-.34s.29.13.29.38c0,.6-.08,1.01-.23,1.25-.21.32-.55.48-1.02.48-.44,0-.75-.14-.93-.42-.14-.2-.2-.55-.2-1.04v-1.97c0-.12-.05-.17-.16-.17h-.27c-.09,0-.16-.03-.22-.09-.06-.06-.09-.13-.09-.21,0-.08.03-.14.09-.21s.12-.09.19-.09h.32c.09,0,.14-.05.14-.16v-.85c0-.21.11-.31.32-.31.2,0,.3.1.3.31v.88c0,.08.05.12.15.12h.9c.21,0,.31.1.31.29,0,.2-.11.3-.34.3h-.9c-.08,0-.12.06-.12.17v2.02c0,.58.19.86.58.86s.59-.23.61-.7Z"/>
      <path class="st0" d="M50.34,53.42c0,.21-.01.34-.04.38-.03.05-.11.07-.24.07h-2.61c-.07,0-.12,0-.14.03-.02.02-.03.05-.03.09,0,.41.12.75.37,1.03s.55.41.92.41c.24,0,.46-.07.66-.2.2-.13.33-.3.39-.5l.07-.24c.04-.13.13-.2.27-.2.2,0,.3.1.3.31,0,.36-.18.67-.54.95-.36.28-.77.42-1.23.42-.58,0-1.03-.19-1.37-.58s-.51-.91-.51-1.56.18-1.21.54-1.63c.36-.42.83-.62,1.41-.62.51,0,.94.17,1.27.52.33.35.5.78.5,1.32ZM47.36,53.21c0,.08.06.12.18.12h1.96c.11,0,.17-.04.17-.12,0-.29-.11-.54-.33-.76-.22-.21-.48-.32-.77-.32s-.59.11-.84.33c-.25.22-.38.47-.38.74Z"/>
    </g>
  </g>
  <line class="st1" x1="29.73" y1="13.79" x2="30.33" y2="22.17"/>
  <line class="st1" x1="34.6" y1="13.77" x2="35.19" y2="22.14"/>
  <line class="st1" x1="39.88" y1="15.17" x2="40.47" y2="22.58"/>
</svg>